<svg width="20" height="20" viewBox="0 0 20 20" fill="none" xmlns="http://www.w3.org/2000/svg">
<path fill-rule="evenodd" clip-rule="evenodd" d="M17.9952 12.4595V7.56061C17.9952 3.08597 16.9386 2.02121 12.4627 2.02121C1.51697 1.95098 1.94813 1.50584 2.02173 12.4511C2.02173 16.9257 3.07824 17.9903 7.55421 17.9903H11.2694C16.025 18.0725 18.1147 17.7456 17.9952 12.4595ZM14.9171 13.4161H13.7523C13.3114 13.4161 13.1783 13.0584 12.3879 12.2683C11.6974 11.6029 11.4062 11.5197 11.2315 11.5197C10.9902 11.5197 10.9236 11.5862 10.9236 11.9189V12.9668C10.9236 13.2496 10.8322 13.416 10.0916 13.416C8.86031 13.416 7.50435 12.6673 6.53913 11.2868C5.09155 9.26571 4.70047 7.73526 4.70047 7.42756C4.70047 7.2529 4.767 7.09492 5.0998 7.09492H6.2646C6.56406 7.09492 6.67218 7.22798 6.78873 7.53568C7.26621 9.101 8.90191 11.7056 8.92684 10.2055V8.49215C8.87699 7.71034 8.46099 7.64381 8.46099 7.36103C8.46099 7.23623 8.57754 7.09492 8.76044 7.09492H10.5907C10.8403 7.09492 10.9235 7.21972 10.9235 7.51901V9.83127C10.9551 10.3857 11.3001 10.1674 11.6474 9.80635C12.4876 8.8748 13.0783 7.42756 13.0783 7.42756C13.1532 7.2529 13.2863 7.09492 13.5857 7.09492H14.7505C15.1 7.09492 15.1748 7.26958 15.1 7.51918C14.9585 8.20112 13.5359 10.1973 13.5359 10.2057C13.4111 10.397 13.3612 10.4969 13.5359 10.7214C13.8712 11.1391 16.3146 13.3457 14.9171 13.4161Z" fill="white"/>
</svg>
