<svg width="20" height="20" viewBox="0 0 20 20" fill="none" xmlns="http://www.w3.org/2000/svg">
<path d="M11.6367 7.28125C11.7662 7.28125 11.8711 7.17632 11.8711 7.04688C11.8711 6.91743 11.7662 6.8125 11.6367 6.8125C11.5073 6.8125 11.4023 6.91743 11.4023 7.04688C11.4023 7.17632 11.5073 7.28125 11.6367 7.28125Z" fill="white"/>
<path d="M8.99805 7.28125C9.12749 7.28125 9.23242 7.17632 9.23242 7.04688C9.23242 6.91743 9.12749 6.8125 8.99805 6.8125C8.86861 6.8125 8.76367 6.91743 8.76367 7.04688C8.76367 7.17632 8.86861 7.28125 8.99805 7.28125Z" fill="white"/>
<path d="M12.3279 2.42969H8.30027C5.03483 2.42969 2.38281 5.05352 2.38281 8.28429V12.2691C2.38281 15.4999 5.03483 18.1237 8.30027 18.1237H12.3279C15.5933 18.1237 18.2453 15.4999 18.2453 12.2691V8.28429C18.2453 5.05353 15.5933 2.42969 12.3279 2.42969ZM6.85871 11.8118C6.86128 11.8927 6.84654 11.9731 6.81548 12.0478C6.78443 12.1225 6.73777 12.1897 6.67863 12.2449C6.55885 12.3575 6.39942 12.4183 6.23505 12.4139C6.067 12.4168 5.90401 12.3564 5.7783 12.2449C5.7158 12.1917 5.66599 12.1252 5.63255 12.0503C5.59911 11.9753 5.58287 11.8939 5.58504 11.8118V9.29609C5.58374 9.21478 5.60038 9.13419 5.63378 9.06006C5.66719 8.98592 5.71653 8.92007 5.77829 8.86718C5.90288 8.75331 6.06628 8.69135 6.23504 8.69397C6.31678 8.69192 6.39811 8.70618 6.47427 8.73592C6.55043 8.76566 6.6199 8.81028 6.67862 8.86718C6.73704 8.92204 6.78327 8.98858 6.81429 9.06247C6.84532 9.13637 6.86045 9.21596 6.8587 9.29609L6.85871 11.8118ZM13.1775 12.7191C13.1777 12.8031 13.1602 12.8861 13.1261 12.9629C13.0921 13.0396 13.0423 13.1083 12.9799 13.1646C12.9153 13.2269 12.8389 13.2758 12.7552 13.3084C12.6715 13.341 12.5822 13.3566 12.4924 13.3543H12.0444V14.6658C12.0468 14.7498 12.0312 14.8334 11.9986 14.9109C11.9661 14.9885 11.9173 15.0581 11.8556 15.1153C11.7341 15.2318 11.5715 15.2955 11.4032 15.2926C11.3164 15.2959 11.2297 15.282 11.1483 15.2515C11.0669 15.2211 10.9923 15.1748 10.9289 15.1153C10.8684 15.0575 10.8207 14.9876 10.7889 14.9101C10.7571 14.8327 10.742 14.7494 10.7444 14.6658V13.3543H9.88366V14.6658C9.8859 14.7502 9.86977 14.8341 9.8364 14.9117C9.80304 14.9894 9.75322 15.0588 9.69039 15.1153C9.56974 15.2303 9.40911 15.2939 9.24243 15.2926C9.15972 15.2943 9.07751 15.2795 9.00059 15.249C8.92367 15.2186 8.85359 15.1731 8.79445 15.1153C8.73391 15.0575 8.6862 14.9876 8.65442 14.9101C8.62265 14.8327 8.60751 14.7494 8.61001 14.6658V13.3543H8.13569C8.0473 13.356 7.95944 13.3401 7.87725 13.3076C7.79506 13.275 7.72018 13.2264 7.65697 13.1646C7.59462 13.1083 7.54479 13.0396 7.51074 12.9629C7.47669 12.8861 7.45918 12.8031 7.45935 12.7191V8.8177H13.1775V12.7191ZM7.42419 8.25493C7.41942 7.79143 7.5642 7.33875 7.83705 6.96406C8.11758 6.57749 8.49258 6.26935 8.92621 6.06911C8.61586 5.59072 8.46069 5.34603 8.46069 5.33502C8.46069 5.28553 8.49582 5.26078 8.56607 5.26077C8.59535 5.26077 8.7681 5.51097 9.08434 6.01137C9.47275 5.84482 9.89146 5.76057 10.3141 5.76393C10.7418 5.76627 11.1651 5.85025 11.5614 6.01137C11.8658 5.51098 12.0357 5.26079 12.0708 5.26079C12.1352 5.26079 12.1674 5.28828 12.1674 5.34328L12.1498 5.38449L11.737 6.09387C12.1641 6.2873 12.5312 6.59217 12.7998 6.97647C13.0655 7.3496 13.2069 7.79692 13.2039 8.25495L7.42419 8.25493ZM15.0431 11.8118C15.0456 11.8927 15.0309 11.9731 14.9998 12.0478C14.9688 12.1225 14.9221 12.1897 14.863 12.2449C14.7432 12.3575 14.5838 12.4183 14.4194 12.4139C14.251 12.4188 14.0873 12.3582 13.9627 12.2449C13.9024 12.1903 13.8547 12.1234 13.8228 12.0486C13.791 11.9739 13.7758 11.8931 13.7782 11.8118V9.29609C13.7766 9.21558 13.7922 9.13566 13.824 9.06168C13.8558 8.98771 13.9031 8.92139 13.9627 8.86718C14.0861 8.75149 14.2503 8.68924 14.4194 8.69397C14.5012 8.69192 14.5825 8.70619 14.6586 8.73593C14.7348 8.76566 14.8043 8.81029 14.863 8.86718C14.9214 8.92204 14.9676 8.98858 14.9987 9.06247C15.0297 9.13637 15.0448 9.21596 15.0431 9.29609V11.8118Z" fill="white"/>
</svg>
