<svg width="20" height="20" viewBox="0 0 20 20" fill="none" xmlns="http://www.w3.org/2000/svg">
<path d="M9.99964 1.82031C5.20187 1.82031 1.3125 5.70968 1.3125 10.5075C1.3125 15.3059 5.20187 19.1946 9.99964 19.1946C14.7974 19.1946 18.6868 15.3059 18.6868 10.5075C18.6868 5.70968 14.7971 1.82031 9.99964 1.82031ZM10.4978 5.34315C10.8918 4.88066 11.5582 4.53776 12.1078 4.51553C12.178 5.15617 11.9198 5.79858 11.5388 6.26072C11.1564 6.72251 10.5309 7.08198 9.91674 7.03436C9.83419 6.40712 10.1436 5.75237 10.4978 5.34315ZM13.6258 14.0917C13.1697 14.7581 12.697 15.422 11.9523 15.4354C11.2199 15.4492 10.9842 15.0015 10.1478 15.0015C9.31067 15.0015 9.0489 15.4223 8.3557 15.4495C7.63709 15.4763 7.08958 14.7309 6.62991 14.0666C5.68976 12.7091 4.97256 10.2302 5.93706 8.55659C6.41472 7.72474 7.27056 7.19981 8.19871 7.18535C8.90568 7.1723 9.57207 7.6616 10.0032 7.6616C10.4353 7.6616 11.2453 7.07387 12.0973 7.16065C12.4536 7.17512 13.454 7.30388 14.0968 8.24403C14.0453 8.27649 12.9019 8.94147 12.9157 10.3261C12.9309 11.9803 14.3667 12.5296 14.3832 12.538C14.3698 12.5754 14.1529 13.3216 13.6258 14.0917Z" fill="white"/>
</svg>
