<svg width="24" height="25" viewBox="0 0 24 25" fill="none" xmlns="http://www.w3.org/2000/svg">
<path d="M20.484 4.01345C15.7971 -0.67214 8.19903 -0.671015 3.51344 4.01602C-1.17214 8.70306 -1.17102 16.301 3.51602 20.9866C8.20306 25.6722 15.801 25.6711 20.4866 20.9841C22.7369 18.7331 24.0008 15.6803 24.0001 12.4975C23.9994 9.31511 22.7347 6.26335 20.484 4.01345ZM18.1736 17.2159C18.1731 17.2164 18.1726 17.217 18.172 17.2175V17.2135L17.564 17.8175C16.7777 18.6138 15.6325 18.9414 14.544 18.6815C13.4473 18.388 12.4048 17.9207 11.456 17.2975C10.5745 16.7341 9.75753 16.0755 9.02 15.3335C8.34139 14.6599 7.73173 13.9202 7.19998 13.1255C6.61836 12.2704 6.158 11.3389 5.83198 10.3575C5.45824 9.20453 5.76795 7.93942 6.632 7.08948L7.34398 6.3775C7.54194 6.17865 7.86359 6.17795 8.06239 6.3759C8.0629 6.37642 8.06347 6.37693 8.06398 6.3775L10.312 8.62548C10.5108 8.82344 10.5115 9.14509 10.3136 9.34389C10.313 9.34441 10.3125 9.34492 10.312 9.34548L8.99197 10.6655C8.61322 11.0401 8.56559 11.6354 8.87998 12.0655C9.35741 12.7207 9.88574 13.3373 10.46 13.9095C11.1003 14.5526 11.7963 15.1375 12.54 15.6575C12.9697 15.9573 13.5523 15.9067 13.924 15.5375L15.2 14.2415C15.3979 14.0427 15.7196 14.042 15.9184 14.2399C15.9189 14.2405 15.9194 14.241 15.92 14.2415L18.172 16.4975C18.3709 16.6954 18.3716 17.0171 18.1736 17.2159Z" fill="#803DB1"/>
</svg>
